<svg xmlns="http://www.w3.org/2000/svg" width="32" height="32" viewBox="0 0 32 32">
  <g fill="none" stroke-linecap="round" stroke-linejoin="round">
    <line x1="16" y1="0" x2="16" y2="7" stroke="#a21caf" stroke-width="3"/>
    <line x1="16" y1="0" x2="16" y2="7" stroke="#f0abfc" stroke-width="1.5"/>
    <circle cx="16" cy="8" r="2.6" fill="#f472b6" stroke="#a21caf" stroke-width="1"/>
    <path d="M14.5 9 C 10 12, 9 18, 13 24 C 13.5 21, 14.5 18, 15.5 16" stroke="#a21caf" stroke-width="4.5"/>
    <path d="M14.5 9 C 10 12, 9 18, 13 24 C 13.5 21, 14.5 18, 15.5 16" stroke="#f472b6" stroke-width="3"/>
    <path d="M17.5 9 C 22 12, 23 18, 19 24 C 18.5 21, 17.5 18, 16.5 16" stroke="#a21caf" stroke-width="4.5"/>
    <path d="M17.5 9 C 22 12, 23 18, 19 24 C 18.5 21, 17.5 18, 16.5 16" stroke="#f472b6" stroke-width="3"/>
    <path d="M16 10 C 16 14, 16 18, 16 22 C 16.6 19.5, 16.6 17, 16 16" stroke="#a21caf" stroke-width="4.5"/>
    <path d="M16 10 C 16 14, 16 18, 16 22 C 16.6 19.5, 16.6 17, 16 16" stroke="#fbbf24" stroke-width="3"/>
    <circle cx="26" cy="6" r="1.4" fill="#22d3ee"/>
    <circle cx="10" cy="4" r="1" fill="#34d399"/>
  </g>
</svg>
